<svg width="253" height="254" viewBox="0 0 253 254" fill="none" xmlns="http://www.w3.org/2000/svg">
<mask id="mask0_2_96" style="mask-type:luminance" maskUnits="userSpaceOnUse" x="0" y="0" width="253" height="254">
<path d="M252.493 0.993011H0.478027V253.008H252.493V0.993011Z" fill="black"/>
<path d="M39.643 213.842C15.425 189.624 15.425 64.376 39.643 40.158C63.861 15.94 189.11 15.939 213.328 40.158C237.546 64.377 237.546 189.624 213.328 213.842C189.11 238.06 63.862 238.061 39.643 213.842Z" fill="white"/>
</mask>
<g mask="url(#mask0_2_96)">
<path d="M252.493 0.993011H0.478027V253.008H252.493V0.993011Z" fill="#2089E6"/>
</g>
<mask id="mask1_2_96" style="mask-type:luminance" maskUnits="userSpaceOnUse" x="61" y="59" width="131" height="136">
<path d="M191.177 59.756H61.7949V194.244H191.177V59.756Z" fill="black"/>
<path d="M126.387 80.946L138.367 144.773C142.819 119.504 145.045 98.4253 145.045 81.536C145.045 80.2267 145.045 79.0483 145.045 78.001L144.652 70.538C158.661 76.6913 170.576 80.881 180.395 83.107C178.824 99.3417 176.565 115.282 173.619 130.928C170.674 146.573 168.088 158.128 165.862 165.591L162.72 176.785C153.817 176.785 144.455 178.356 134.636 181.498L129.726 183.069L113.229 123.76C109.432 138.031 105.374 157.931 101.053 183.462C95.9469 181.629 90.6446 178.978 85.1459 175.508C79.6466 172.039 75.4569 168.602 72.5769 165.198C74.0169 152.498 76.2752 139.798 79.3519 127.098C82.4286 114.398 85.2109 104.84 87.6989 98.425L91.2339 88.998C101.184 85.332 112.902 82.648 126.387 80.946Z" fill="white" stroke="white"/>
</mask>
<g mask="url(#mask1_2_96)">
<path d="M191.177 59.756H61.7949V194.244H191.177V59.756Z" fill="#F8EFED"/>
</g>
</svg>
