<svg width="964" height="254" viewBox="0 0 964 254" fill="none" xmlns="http://www.w3.org/2000/svg">
<mask id="mask0_2_95" style="mask-type:luminance" maskUnits="userSpaceOnUse" x="254" y="74" width="710" height="106">
<path d="M963.471 74.004H254.161V179.995H963.471V74.004Z" fill="black"/>
<path d="M326.08 171.163C318.536 158.97 311.496 147.917 304.961 138.005C298.426 128.092 294.237 121.776 292.395 119.057H290.816L290.948 152.479C290.948 154.847 291.299 156.492 292.001 157.413C292.702 158.334 293.93 158.794 295.685 158.794C296.65 158.794 297.658 158.728 298.711 158.597C299.764 158.466 300.465 158.4 300.816 158.4L301.737 159.321L300.422 168.926C299.018 168.838 296.496 168.728 292.856 168.597C289.215 168.466 285.641 168.4 282.132 168.4C278.799 168.4 275.268 168.553 271.54 168.86C267.812 169.167 265.378 169.365 264.237 169.452L265.421 159.321C268.053 158.97 269.961 158.158 271.145 156.886C272.329 155.615 272.965 153.663 273.053 151.031L274.632 101.689C274.632 99.671 274.369 98.1357 273.842 97.083C273.316 96.0303 272.329 95.241 270.882 94.715C269.435 94.1883 267.264 93.7497 264.369 93.399L263.053 91.952L263.974 83.004C265.027 83.092 267.307 83.2237 270.816 83.399C274.325 83.5743 277.702 83.662 280.948 83.662C283.579 83.662 286.43 83.5963 289.501 83.465C292.571 83.333 294.545 83.2233 295.422 83.136C301.65 93.5747 308.36 104.386 315.553 115.57C322.746 126.755 326.343 132.259 326.343 132.084H327.922L327.659 99.189C327.571 96.9957 327.198 95.5043 326.54 94.715C325.883 93.9257 324.808 93.531 323.317 93.531H318.974L318.317 92.346L319.238 83.136C320.641 83.2233 323.207 83.333 326.935 83.465C330.663 83.5963 334.413 83.662 338.185 83.662C341.08 83.662 344.303 83.5963 347.856 83.465C351.409 83.333 353.755 83.2233 354.896 83.136L354.238 93.136C351.343 93.4867 349.304 94.298 348.12 95.57C346.935 96.842 346.299 98.7937 346.212 101.425L344.501 169.452L326.08 171.163ZM391.08 169.979C381.343 169.979 373.778 167.238 368.383 161.755C362.988 156.272 360.291 148.663 360.291 138.926C360.291 132.522 361.651 126.776 364.37 121.689C367.089 116.601 370.883 112.632 375.751 109.781C380.62 106.93 386.168 105.504 392.396 105.504C408.011 105.504 415.818 113.531 415.818 129.584C415.818 132.303 415.511 134.979 414.896 137.61L413.318 139.057H380.554C380.729 144.32 382.155 148.334 384.83 151.097C387.506 153.86 391.168 155.242 395.817 155.242C400.466 155.242 405.598 153.97 411.212 151.426L412.396 151.952L414.765 159.847C411.432 162.391 407.528 164.716 403.054 166.821C398.581 168.926 394.589 169.979 391.08 169.979ZM380.291 130.636L395.159 129.715C396.036 129.54 396.607 129.298 396.87 128.991C397.133 128.684 397.265 128.005 397.265 126.952C397.265 120.811 394.896 117.741 390.159 117.741C383.931 117.741 380.642 122.039 380.291 130.636ZM454.897 169.058L454.371 168.4L455.423 160.768C457.178 160.68 458.406 160.483 459.107 160.176C459.809 159.869 460.16 159.32 460.16 158.531C460.16 157.742 459.678 156.689 458.713 155.373L451.739 145.9C451.3 146.514 450.313 147.786 448.778 149.715C447.243 151.645 446.037 153.312 445.16 154.715C444.283 156.119 443.844 157.172 443.844 157.873C443.844 158.838 444.173 159.518 444.831 159.913C445.489 160.308 446.651 160.549 448.318 160.636L448.713 161.426L447.792 168.926C446.651 168.838 444.634 168.728 441.739 168.597C438.844 168.466 436.257 168.4 433.976 168.4C432.046 168.4 429.853 168.466 427.397 168.597C424.94 168.728 423.361 168.838 422.66 168.926L422.133 167.742L423.186 160.373C424.502 159.759 425.906 158.706 427.397 157.215C428.888 155.724 431.3 152.961 434.633 148.926L444.897 136.689L436.476 125.241C434.283 122.171 432.243 120.022 430.357 118.794C428.471 117.566 426.125 116.689 423.318 116.162L422.923 115.636L423.844 106.952C424.721 106.952 426.585 106.974 429.436 107.018C432.287 107.061 435.861 107.083 440.16 107.083C443.669 107.083 447.199 106.995 450.752 106.82C454.305 106.645 456.607 106.513 457.66 106.425L458.186 107.347L457.397 115.373C454.327 115.373 452.792 116.206 452.792 117.873C452.792 118.838 453.011 119.737 453.449 120.57C453.888 121.403 454.59 122.478 455.555 123.794L460.16 129.978L465.423 122.741C465.598 122.478 465.971 121.952 466.542 121.162C467.112 120.373 467.529 119.693 467.792 119.123C468.055 118.553 468.186 118.005 468.186 117.478C468.186 116.777 467.879 116.272 467.265 115.965C466.651 115.658 465.555 115.504 463.976 115.504L463.713 114.978L464.371 107.083H477.265C479.984 107.083 482.441 107.039 484.634 106.952C486.827 106.864 488.318 106.776 489.108 106.689L489.502 107.478L488.845 115.899C484.02 118.706 480.204 121.952 477.397 125.636L467.397 139.189L476.608 151.294C478.889 154.277 480.95 156.448 482.792 157.808C484.634 159.167 486.783 159.935 489.239 160.11L489.634 160.505L488.318 168.663C487.353 168.663 485.555 168.619 482.923 168.531C480.292 168.444 477.748 168.4 475.292 168.4C471.783 168.4 467.924 168.488 463.713 168.663C459.502 168.838 456.564 168.97 454.897 169.058ZM520.161 169.979C507.617 169.979 501.345 164.54 501.345 153.663V125.899C501.345 123.004 500.884 121.075 499.963 120.11C499.042 119.145 497.178 118.618 494.371 118.531L492.792 117.478L493.713 109.847C497.485 108.092 501.235 106.075 504.963 103.794C508.691 101.513 511.783 99.5397 514.24 97.873C516.696 96.2063 518.231 95.1097 518.845 94.583L523.055 96.952C522.968 97.478 522.748 98.8593 522.397 101.096C522.046 103.333 521.696 106.031 521.345 109.189L534.898 108.794L535.556 109.452L534.108 119.452L520.424 119.057C519.985 126.952 519.766 135.724 519.766 145.373C519.766 148.706 520.358 151.163 521.542 152.742C522.727 154.321 524.635 155.11 527.266 155.11C528.669 155.11 530.117 154.891 531.608 154.452C533.099 154.013 534.064 153.706 534.503 153.531L536.345 158.268C535.731 158.882 534.415 160.11 532.398 161.952C530.38 163.794 528.187 165.592 525.819 167.347C523.45 169.102 521.564 169.979 520.161 169.979ZM565.556 168.4C562.31 168.4 558.363 168.553 553.714 168.86C549.065 169.167 545.994 169.409 544.503 169.584L545.556 159.452C549.152 158.838 551.586 157.829 552.858 156.426C554.13 155.023 554.766 152.654 554.766 149.321L554.898 99.846C554.898 97.5653 554.591 95.9207 553.977 94.912C553.363 93.9033 552.354 93.399 550.95 93.399C550.073 93.399 549.196 93.443 548.319 93.531C547.442 93.6183 546.828 93.662 546.477 93.662L545.292 92.478L546.74 83.399L566.608 83.662C570.205 83.5747 574.328 83.443 578.977 83.267C583.626 83.0917 586.916 82.9603 588.845 82.873C598.232 82.873 605.381 84.6273 610.293 88.136C615.206 91.6447 617.662 96.7323 617.662 103.399C617.662 111.645 613.144 118.356 604.109 123.531C615.864 126.952 621.741 133.444 621.741 143.005C621.741 151.426 618.605 158.005 612.333 162.742C606.061 167.479 597.311 169.847 586.082 169.847C574.854 168.882 568.012 168.4 565.556 168.4ZM576.214 118.794C577.179 118.969 579.108 119.232 582.003 119.583C584.898 119.934 586.871 120.11 587.924 120.11C587.924 120.285 588.626 119.847 590.03 118.794C591.433 117.741 592.705 116.272 593.846 114.386C594.986 112.5 595.556 110.154 595.556 107.347C595.556 103.575 594.262 100.768 591.674 98.925C589.087 97.083 585.074 96.162 579.635 96.162C578.758 96.162 578.166 96.2937 577.859 96.557C577.552 96.8203 577.354 97.3903 577.266 98.267C576.915 102.653 576.565 109.495 576.214 118.794ZM575.951 132.61L575.424 149.321C575.424 151.864 576.279 153.662 577.99 154.715C579.701 155.768 582.574 156.294 586.609 156.294C590.468 156.294 593.451 155.285 595.556 153.268C597.661 151.251 598.714 148.4 598.714 144.715C598.714 141.733 597.749 139.211 595.819 137.149C593.889 135.088 591.082 133.575 587.398 132.61H575.951ZM680.425 169.979C676.302 169.979 673.057 169.146 670.688 167.479C668.32 165.812 666.96 163.356 666.609 160.11L665.294 159.584C662.575 162.303 659.877 164.628 657.201 166.558C654.526 168.487 652.355 169.452 650.688 169.452C647.267 169.452 644.131 168.553 641.28 166.755C638.429 164.957 636.193 162.479 634.57 159.321C632.947 156.163 632.135 152.698 632.135 148.926C632.135 146.119 632.881 143.684 634.372 141.623C635.863 139.562 637.793 138.268 640.162 137.742L665.688 132.347V130.505C665.688 127.084 664.723 124.43 662.794 122.544C660.864 120.658 658.145 119.715 654.636 119.715C652.355 119.715 649.811 120.307 647.004 121.491C644.197 122.676 641.653 124.057 639.372 125.636L638.056 124.978L635.293 115.899C640.118 113.268 645.03 110.877 650.03 108.728C655.03 106.579 658.627 105.504 660.82 105.504C669.065 105.504 675.096 107.215 678.912 110.636C682.728 114.057 684.636 118.487 684.636 123.926C684.636 125.154 684.197 129.189 683.32 136.031C683.232 137.084 682.969 139.233 682.531 142.478C682.092 145.724 681.873 148.005 681.873 149.321C681.873 150.812 682.268 152.018 683.057 152.939C683.846 153.86 684.899 154.321 686.215 154.321C687.882 154.321 689.724 153.751 691.741 152.61L693.846 155.636C692.092 158.882 689.943 161.952 687.399 164.847C684.855 167.742 682.53 169.452 680.425 169.979ZM657.004 154.979C658.145 154.979 659.482 154.738 661.017 154.255C662.552 153.772 663.934 153.18 665.162 152.479L665.425 140.636L653.451 143.663C652.398 143.926 651.653 144.342 651.214 144.913C650.776 145.483 650.557 146.294 650.557 147.347C650.557 149.54 651.149 151.36 652.333 152.807C653.517 154.255 655.074 154.979 657.004 154.979ZM699.768 164.321L731.742 117.083L722.005 118.005C718.759 118.356 716.303 118.882 714.636 119.583C712.969 120.285 711.785 121.382 711.083 122.873C710.382 124.364 709.943 126.557 709.768 129.452L702.268 130.11C702.443 128.531 702.706 125.175 703.057 120.044C703.408 114.913 703.627 110.549 703.715 106.952L704.636 105.899L721.873 106.952L753.847 107.215L755.821 111.689C749.33 120.461 743.101 129.145 737.136 137.742C731.171 146.338 726.522 153.224 723.189 158.4L734.505 157.215C738.364 156.689 741.259 155.286 743.189 153.005C745.119 150.724 746.479 147.04 747.268 141.952L754.9 141.294C754.637 143.049 754.198 146.733 753.584 152.347C752.97 157.961 752.663 162.829 752.663 166.952L750.558 169.058L710.162 168.268L702.531 169.058L699.768 164.321ZM813.19 169.979C809.067 169.979 805.821 169.146 803.453 167.479C801.084 165.812 799.725 163.356 799.374 160.11L798.058 159.584C795.339 162.303 792.641 164.628 789.966 166.558C787.291 168.487 785.12 169.452 783.453 169.452C780.032 169.452 776.896 168.553 774.045 166.755C771.194 164.957 768.957 162.479 767.334 159.321C765.711 156.163 764.9 152.698 764.9 148.926C764.9 146.119 765.646 143.684 767.137 141.623C768.628 139.562 770.558 138.268 772.926 137.742L798.453 132.347V130.505C798.453 127.084 797.488 124.43 795.558 122.544C793.628 120.658 790.909 119.715 787.4 119.715C785.119 119.715 782.575 120.307 779.768 121.491C776.961 122.676 774.418 124.057 772.137 125.636L770.821 124.978L768.058 115.899C772.883 113.268 777.795 110.877 782.795 108.728C787.795 106.579 791.391 105.504 793.584 105.504C801.83 105.504 807.861 107.215 811.677 110.636C815.492 114.057 817.4 118.487 817.4 123.926C817.4 125.154 816.961 129.189 816.084 136.031C815.997 137.084 815.734 139.233 815.295 142.478C814.856 145.724 814.637 148.005 814.637 149.321C814.637 150.812 815.032 152.018 815.821 152.939C816.611 153.86 817.664 154.321 818.979 154.321C820.646 154.321 822.488 153.751 824.506 152.61L826.611 155.636C824.856 158.882 822.707 161.952 820.163 164.847C817.62 167.742 815.295 169.452 813.19 169.979ZM789.768 154.979C790.909 154.979 792.247 154.738 793.782 154.255C795.317 153.772 796.698 153.18 797.926 152.479L798.19 140.636L786.216 143.663C785.163 143.926 784.418 144.342 783.979 144.913C783.54 145.483 783.321 146.294 783.321 147.347C783.321 149.54 783.913 151.36 785.097 152.807C786.282 154.255 787.839 154.979 789.768 154.979ZM881.875 169.979C877.752 169.979 874.506 169.146 872.138 167.479C869.769 165.812 868.41 163.356 868.059 160.11L866.743 159.584C864.024 162.303 861.326 164.628 858.651 166.558C855.976 168.487 853.804 169.452 852.137 169.452C848.716 169.452 845.58 168.553 842.729 166.755C839.878 164.957 837.642 162.479 836.019 159.321C834.396 156.163 833.585 152.698 833.585 148.926C833.585 146.119 834.331 143.684 835.822 141.623C837.313 139.562 839.242 138.268 841.611 137.742L867.138 132.347V130.505C867.138 127.084 866.173 124.43 864.243 122.544C862.313 120.658 859.594 119.715 856.085 119.715C853.804 119.715 851.26 120.307 848.453 121.491C845.646 122.676 843.103 124.057 840.822 125.636L839.506 124.978L836.743 115.899C841.568 113.268 846.48 110.877 851.48 108.728C856.48 106.579 860.076 105.504 862.269 105.504C870.515 105.504 876.546 107.215 880.361 110.636C884.177 114.057 886.085 118.487 886.085 123.926C886.085 125.154 885.646 129.189 884.769 136.031C884.682 137.084 884.419 139.233 883.98 142.478C883.541 145.724 883.322 148.005 883.322 149.321C883.322 150.812 883.717 152.018 884.506 152.939C885.295 153.86 886.348 154.321 887.664 154.321C889.331 154.321 891.173 153.751 893.19 152.61L895.296 155.636C893.541 158.882 891.392 161.952 888.848 164.847C886.305 167.742 883.98 169.452 881.875 169.979ZM858.453 154.979C859.594 154.979 860.932 154.738 862.467 154.255C864.002 153.772 865.383 153.18 866.611 152.479L866.874 140.636L854.901 143.663C853.848 143.926 853.103 144.342 852.664 144.913C852.225 145.483 852.006 146.294 852.006 147.347C852.006 149.54 852.598 151.36 853.782 152.807C854.967 154.255 856.524 154.979 858.453 154.979ZM904.375 159.452C906.919 159.277 908.673 158.619 909.638 157.479C910.603 156.338 911.085 154.321 911.085 151.426V126.689C911.085 123.618 910.69 121.557 909.901 120.505C909.112 119.452 907.533 118.926 905.164 118.926L902.796 119.057L902.138 118.136L903.059 110.11C908.498 109.32 913.958 108.421 919.441 107.412C924.923 106.403 928.454 105.767 930.033 105.504L931.48 106.82C931.305 107.522 931.02 109.079 930.625 111.491C930.23 113.904 929.989 116.25 929.901 118.531L930.822 119.057C933.629 115.022 936.612 111.93 939.77 109.781C942.928 107.632 946.13 106.557 949.375 106.557C950.34 106.557 951.305 106.623 952.27 106.754C953.235 106.886 953.849 106.996 954.112 107.083L954.638 108.268C954.375 109.935 953.893 113.531 953.191 119.057C952.489 124.584 952.007 129.847 951.744 134.847L941.612 135.505C941.612 131.031 941.349 128.048 940.823 126.557C940.296 125.066 939.287 124.32 937.796 124.32C936.656 124.32 935.472 124.693 934.243 125.439C933.015 126.184 931.831 127.215 930.691 128.531C930.516 130.9 930.274 134.803 929.967 140.242C929.66 145.681 929.463 149.979 929.375 153.136C929.375 155.066 929.726 156.426 930.428 157.215C931.129 158.005 932.313 158.4 933.98 158.4C935.471 158.4 936.897 158.334 938.257 158.202C939.616 158.071 940.515 157.961 940.954 157.873L941.48 158.794L939.901 169.058C938.586 168.97 935.801 168.838 931.546 168.663C927.291 168.488 923.761 168.4 920.954 168.4C917.533 168.4 913.98 168.488 910.296 168.663C906.612 168.838 904.2 168.97 903.059 169.058L904.375 159.452Z" fill="white" stroke="white"/>
</mask>
<g mask="url(#mask0_2_95)">
<path d="M963.471 74.004H254.161V179.995H963.471V74.004Z" fill="#443E48"/>
</g>
<mask id="mask1_2_95" style="mask-type:luminance" maskUnits="userSpaceOnUse" x="0" y="0" width="253" height="254">
<path d="M252.493 0.993011H0.478027V253.008H252.493V0.993011Z" fill="black"/>
<path d="M39.643 213.842C15.425 189.624 15.425 64.376 39.643 40.158C63.861 15.94 189.11 15.939 213.328 40.158C237.546 64.377 237.546 189.624 213.328 213.842C189.11 238.06 63.862 238.061 39.643 213.842Z" fill="white"/>
</mask>
<g mask="url(#mask1_2_95)">
<path d="M252.493 0.993011H0.478027V253.008H252.493V0.993011Z" fill="#2089E6"/>
</g>
<mask id="mask2_2_95" style="mask-type:luminance" maskUnits="userSpaceOnUse" x="61" y="59" width="131" height="136">
<path d="M191.177 59.756H61.7949V194.244H191.177V59.756Z" fill="black"/>
<path d="M126.387 80.946L138.367 144.773C142.819 119.504 145.045 98.4253 145.045 81.536C145.045 80.2267 145.045 79.0483 145.045 78.001L144.652 70.538C158.661 76.6913 170.576 80.881 180.395 83.107C178.824 99.3417 176.565 115.282 173.619 130.928C170.674 146.573 168.088 158.128 165.862 165.591L162.72 176.785C153.817 176.785 144.455 178.356 134.636 181.498L129.726 183.069L113.229 123.76C109.432 138.031 105.374 157.931 101.053 183.462C95.9469 181.629 90.6446 178.978 85.1459 175.508C79.6466 172.039 75.4569 168.602 72.5769 165.198C74.0169 152.498 76.2752 139.798 79.3519 127.098C82.4286 114.398 85.2109 104.84 87.6989 98.425L91.2339 88.998C101.184 85.332 112.902 82.648 126.387 80.946Z" fill="white" stroke="white"/>
</mask>
<g mask="url(#mask2_2_95)">
<path d="M191.177 59.756H61.7949V194.244H191.177V59.756Z" fill="#F8EFED"/>
</g>
</svg>
