<svg width="1012" height="198" viewBox="0 0 1012 198" fill="none" xmlns="http://www.w3.org/2000/svg">
<rect width="1012" height="198" fill="white"/>
<g clip-path="url(#clip0_1_22)">
<mask id="mask0_1_22" style="mask-type:luminance" maskUnits="userSpaceOnUse" x="398" y="73" width="336" height="52">
<path d="M733.183 73.9625H398.076V124.037H733.183V73.9625Z" fill="black"/>
<path d="M432.054 119.864C428.489 114.104 425.163 108.882 422.076 104.199C418.989 99.5159 417.01 96.532 416.139 95.2474H415.393L415.456 111.037C415.456 112.156 415.622 112.933 415.953 113.368C416.284 113.803 416.865 114.021 417.694 114.021C418.15 114.021 418.626 113.99 419.123 113.928C419.621 113.866 419.952 113.835 420.118 113.835L420.553 114.27L419.932 118.808C419.268 118.766 418.077 118.714 416.357 118.652C414.637 118.59 412.948 118.559 411.291 118.559C409.716 118.559 408.048 118.631 406.287 118.776C404.525 118.921 403.375 119.015 402.836 119.056L403.396 114.27C404.639 114.104 405.541 113.72 406.1 113.119C406.659 112.519 406.96 111.597 407.001 110.353L407.747 87.0421C407.747 86.0887 407.623 85.3633 407.374 84.866C407.126 84.3687 406.659 83.9958 405.976 83.7473C405.292 83.4984 404.266 83.2912 402.899 83.1255L402.277 82.4419L402.712 78.2145C403.21 78.2561 404.287 78.3183 405.945 78.4011C407.602 78.4839 409.198 78.5254 410.731 78.5254C411.974 78.5254 413.321 78.4943 414.772 78.4323C416.222 78.3699 417.155 78.3181 417.569 78.2769C420.512 83.2085 423.682 88.3162 427.08 93.6C430.478 98.8843 432.178 101.485 432.178 101.402H432.924L432.799 85.861C432.758 84.8248 432.582 84.1202 432.271 83.7473C431.96 83.3744 431.453 83.1879 430.748 83.1879H428.696L428.386 82.6281L428.821 78.2769C429.484 78.3181 430.696 78.3699 432.457 78.4323C434.219 78.4943 435.99 78.5254 437.772 78.5254C439.14 78.5254 440.663 78.4943 442.341 78.4323C444.02 78.3699 445.128 78.3181 445.667 78.2769L445.357 83.0013C443.989 83.167 443.025 83.5503 442.466 84.1512C441.906 84.7521 441.606 85.6742 441.565 86.9173L440.756 119.056L432.054 119.864ZM462.762 119.305C458.162 119.305 454.588 118.01 452.039 115.42C449.49 112.829 448.216 109.235 448.216 104.634C448.216 101.609 448.859 98.8942 450.143 96.4909C451.428 94.0871 453.22 92.212 455.52 90.8651C457.82 89.5181 460.442 88.8444 463.384 88.8444C470.761 88.8444 474.449 92.6367 474.449 100.221C474.449 101.505 474.304 102.77 474.014 104.013L473.268 104.696H457.789C457.872 107.183 458.546 109.079 459.809 110.384C461.074 111.69 462.804 112.343 465 112.343C467.196 112.343 469.621 111.742 472.273 110.54L472.833 110.788L473.952 114.518C472.377 115.72 470.533 116.819 468.419 117.813C466.306 118.808 464.42 119.305 462.762 119.305ZM457.665 100.718L464.689 100.283C465.104 100.2 465.373 100.086 465.498 99.9406C465.622 99.7956 465.684 99.4748 465.684 98.9773C465.684 96.0761 464.565 94.6257 462.327 94.6257C459.385 94.6257 457.831 96.6562 457.665 100.718ZM492.912 118.87L492.663 118.559L493.16 114.953C493.99 114.912 494.57 114.819 494.901 114.674C495.233 114.529 495.398 114.269 495.398 113.897C495.398 113.524 495.171 113.026 494.715 112.405L491.42 107.929C491.213 108.219 490.746 108.82 490.021 109.732C489.296 110.643 488.726 111.431 488.312 112.094C487.897 112.757 487.69 113.255 487.69 113.586C487.69 114.042 487.845 114.363 488.156 114.549C488.467 114.736 489.016 114.85 489.804 114.891L489.99 115.264L489.555 118.808C489.016 118.766 488.063 118.714 486.696 118.652C485.328 118.59 484.106 118.559 483.028 118.559C482.116 118.559 481.08 118.59 479.92 118.652C478.759 118.714 478.013 118.766 477.682 118.808L477.433 118.248L477.93 114.767C478.552 114.477 479.215 113.979 479.92 113.275C480.624 112.57 481.764 111.265 483.338 109.359L488.188 103.577L484.209 98.169C483.173 96.7186 482.209 95.7033 481.318 95.1232C480.427 94.543 479.319 94.1287 477.993 93.8797L477.806 93.6312L478.241 89.5285C478.656 89.5285 479.536 89.5389 480.883 89.5597C482.23 89.58 483.919 89.5904 485.95 89.5904C487.607 89.5904 489.275 89.5488 490.954 89.4662C492.632 89.3835 493.72 89.3211 494.217 89.2795L494.466 89.7151L494.093 93.5069C492.643 93.5069 491.917 93.9005 491.917 94.6881C491.917 95.144 492.021 95.5687 492.228 95.9622C492.435 96.3558 492.767 96.8636 493.223 97.4854L495.398 100.407L497.885 96.9879C497.968 96.8636 498.144 96.6151 498.414 96.2419C498.683 95.8692 498.88 95.5479 499.004 95.2786C499.128 95.0093 499.19 94.7504 499.19 94.5014C499.19 94.1703 499.045 93.9317 498.755 93.7866C498.465 93.6416 497.947 93.5688 497.201 93.5688L497.077 93.3203L497.388 89.5904H503.479C504.764 89.5904 505.925 89.5696 506.961 89.5285C507.997 89.4869 508.701 89.4454 509.075 89.4043L509.261 89.777L508.95 93.7555C506.671 95.0816 504.868 96.6151 503.542 98.3556L498.817 104.759L503.169 110.478C504.247 111.887 505.22 112.912 506.091 113.555C506.961 114.197 507.976 114.56 509.137 114.643L509.323 114.829L508.701 118.683C508.245 118.683 507.396 118.663 506.153 118.621C504.91 118.58 503.708 118.559 502.547 118.559C500.89 118.559 499.066 118.601 497.077 118.683C495.088 118.766 493.699 118.828 492.912 118.87ZM523.745 119.305C517.819 119.305 514.856 116.735 514.856 111.597V98.4799C514.856 97.1121 514.638 96.2008 514.203 95.7449C513.768 95.289 512.887 95.04 511.561 94.9989L510.815 94.5014L511.25 90.8962C513.032 90.0671 514.804 89.1142 516.565 88.0366C518.326 86.9589 519.787 86.0266 520.948 85.2392C522.108 84.4518 522.833 83.9337 523.124 83.6849L525.113 84.8041C525.071 85.0526 524.968 85.7052 524.802 86.7619C524.636 87.8188 524.47 89.0934 524.305 90.5854L530.708 90.3988L531.019 90.7096L530.334 95.434L523.87 95.2474C523.662 98.9773 523.559 103.122 523.559 107.68C523.559 109.255 523.838 110.416 524.398 111.162C524.958 111.908 525.859 112.28 527.102 112.28C527.765 112.28 528.449 112.177 529.153 111.969C529.858 111.762 530.314 111.617 530.521 111.534L531.391 113.772C531.101 114.062 530.479 114.643 529.527 115.513C528.573 116.383 527.537 117.232 526.418 118.062C525.299 118.891 524.408 119.305 523.745 119.305ZM545.192 118.559C543.658 118.559 541.793 118.631 539.597 118.776C537.401 118.921 535.95 119.036 535.245 119.118L535.743 114.332C537.442 114.042 538.592 113.565 539.193 112.902C539.794 112.239 540.094 111.12 540.094 109.545L540.156 86.1714C540.156 85.0939 540.011 84.3169 539.721 83.8403C539.431 83.3638 538.955 83.1255 538.291 83.1255C537.877 83.1255 537.463 83.1463 537.048 83.1879C536.634 83.2291 536.344 83.2498 536.178 83.2498L535.618 82.6904L536.302 78.4011L545.689 78.5254C547.388 78.4841 549.336 78.4219 551.532 78.3388C553.729 78.2559 555.283 78.1939 556.194 78.1526C560.629 78.1526 564.007 78.9814 566.327 80.6391C568.648 82.2967 569.809 84.7003 569.809 87.8499C569.809 91.7457 567.674 94.9162 563.406 97.3611C568.959 98.9773 571.736 102.044 571.736 106.561C571.736 110.54 570.254 113.648 567.291 115.886C564.328 118.124 560.194 119.243 554.889 119.243C549.585 118.787 546.352 118.559 545.192 118.559ZM550.227 95.1232C550.683 95.2058 551.594 95.3301 552.962 95.4959C554.33 95.6618 555.262 95.7449 555.759 95.7449C555.759 95.8276 556.091 95.6206 556.754 95.1232C557.417 94.6257 558.018 93.9317 558.557 93.0406C559.096 92.1496 559.365 91.0413 559.365 89.7151C559.365 87.9331 558.754 86.6069 557.531 85.7362C556.309 84.866 554.413 84.4309 551.843 84.4309C551.429 84.4309 551.149 84.4931 551.004 84.6175C550.859 84.7419 550.766 85.0112 550.724 85.4254C550.558 87.4975 550.393 90.7299 550.227 95.1232ZM550.103 101.65L549.854 109.545C549.854 110.747 550.258 111.596 551.066 112.094C551.874 112.591 553.232 112.84 555.138 112.84C556.961 112.84 558.371 112.363 559.365 111.41C560.359 110.457 560.857 109.11 560.857 107.369C560.857 105.96 560.401 104.769 559.489 103.795C558.577 102.821 557.251 102.106 555.511 101.65H550.103ZM599.461 119.305C597.513 119.305 595.98 118.912 594.86 118.124C593.742 117.336 593.099 116.176 592.933 114.643L592.312 114.394C591.028 115.679 589.753 116.777 588.489 117.689C587.225 118.6 586.199 119.056 585.412 119.056C583.795 119.056 582.314 118.631 580.967 117.782C579.62 116.932 578.564 115.762 577.797 114.27C577.03 112.778 576.646 111.141 576.646 109.359C576.646 108.033 576.999 106.882 577.703 105.909C578.408 104.935 579.319 104.323 580.439 104.075L592.498 101.526V100.656C592.498 99.0397 592.042 97.7858 591.131 96.8948C590.219 96.0038 588.935 95.5583 587.277 95.5583C586.199 95.5583 584.997 95.838 583.671 96.3973C582.345 96.9572 581.143 97.6096 580.065 98.3556L579.444 98.0447L578.138 93.7555C580.418 92.5125 582.739 91.3829 585.101 90.3676C587.463 89.3523 589.162 88.8444 590.198 88.8444C594.094 88.8444 596.943 89.6528 598.746 91.269C600.549 92.8852 601.45 94.9781 601.45 97.5477C601.45 98.1279 601.243 100.034 600.828 103.267C600.787 103.764 600.662 104.779 600.456 106.312C600.248 107.846 600.145 108.924 600.145 109.545C600.145 110.25 600.331 110.82 600.704 111.255C601.077 111.69 601.574 111.908 602.196 111.908C602.984 111.908 603.854 111.638 604.807 111.099L605.801 112.529C604.973 114.062 603.957 115.513 602.755 116.88C601.553 118.248 600.455 119.056 599.461 119.305ZM588.396 112.218C588.935 112.218 589.566 112.105 590.291 111.876C591.017 111.648 591.67 111.369 592.25 111.037L592.374 105.442L586.717 106.872C586.219 106.997 585.868 107.193 585.66 107.463C585.453 107.732 585.35 108.115 585.35 108.613C585.35 109.649 585.629 110.509 586.189 111.192C586.748 111.876 587.484 112.218 588.396 112.218ZM608.599 116.632L623.705 94.3148L619.105 94.7504C617.571 94.9162 616.411 95.1647 615.623 95.4959C614.836 95.8276 614.276 96.3458 613.945 97.0503C613.613 97.7547 613.406 98.7907 613.323 100.158L609.78 100.469C609.863 99.7233 609.987 98.1378 610.153 95.7137C610.319 93.2896 610.422 91.2279 610.464 89.5285L610.899 89.031L619.042 89.5285L634.148 89.6528L635.081 91.7665C632.014 95.9107 629.071 100.013 626.253 104.075C623.435 108.136 621.239 111.389 619.664 113.835L625.01 113.275C626.833 113.026 628.201 112.363 629.113 111.286C630.025 110.208 630.667 108.468 631.04 106.064L634.646 105.753C634.521 106.582 634.314 108.323 634.024 110.975C633.734 113.627 633.589 115.927 633.589 117.875L632.594 118.87L613.51 118.497L609.904 118.87L608.599 116.632ZM662.184 119.305C660.236 119.305 658.703 118.912 657.584 118.124C656.465 117.336 655.823 116.176 655.657 114.643L655.035 114.394C653.751 115.679 652.476 116.777 651.212 117.689C649.948 118.6 648.923 119.056 648.135 119.056C646.519 119.056 645.037 118.631 643.69 117.782C642.344 116.932 641.287 115.762 640.52 114.27C639.753 112.778 639.37 111.141 639.37 109.359C639.37 108.033 639.722 106.882 640.427 105.909C641.131 104.935 642.043 104.323 643.162 104.075L655.222 101.526V100.656C655.222 99.0397 654.766 97.7858 653.854 96.8948C652.942 96.0038 651.658 95.5583 650 95.5583C648.922 95.5583 647.72 95.838 646.394 96.3973C645.068 96.9572 643.867 97.6096 642.789 98.3556L642.167 98.0447L640.862 93.7555C643.142 92.5125 645.462 91.3829 647.824 90.3676C650.187 89.3523 651.885 88.8444 652.922 88.8444C656.817 88.8444 659.667 89.6528 661.469 91.269C663.272 92.8852 664.173 94.9781 664.173 97.5477C664.173 98.1279 663.966 100.034 663.551 103.267C663.51 103.764 663.386 104.779 663.179 106.312C662.971 107.846 662.868 108.924 662.868 109.545C662.868 110.25 663.054 110.82 663.427 111.255C663.8 111.69 664.298 111.908 664.919 111.908C665.707 111.908 666.577 111.638 667.53 111.099L668.525 112.529C667.696 114.062 666.68 115.513 665.479 116.88C664.277 118.248 663.179 119.056 662.184 119.305ZM651.119 112.218C651.658 112.218 652.29 112.105 653.015 111.876C653.74 111.648 654.393 111.369 654.973 111.037L655.098 105.442L649.441 106.872C648.943 106.997 648.591 107.193 648.384 107.463C648.176 107.732 648.073 108.115 648.073 108.613C648.073 109.649 648.353 110.509 648.912 111.192C649.472 111.876 650.207 112.218 651.119 112.218ZM694.634 119.305C692.686 119.305 691.152 118.912 690.034 118.124C688.914 117.336 688.272 116.176 688.107 114.643L687.485 114.394C686.2 115.679 684.926 116.777 683.662 117.689C682.398 118.6 681.372 119.056 680.584 119.056C678.968 119.056 677.487 118.631 676.14 117.782C674.793 116.932 673.736 115.762 672.97 114.27C672.203 112.778 671.82 111.141 671.82 109.359C671.82 108.033 672.172 106.882 672.876 105.909C673.581 104.935 674.492 104.323 675.611 104.075L687.671 101.526V100.656C687.671 99.0397 687.215 97.7858 686.304 96.8948C685.392 96.0038 684.107 95.5583 682.45 95.5583C681.372 95.5583 680.17 95.838 678.844 96.3973C677.518 96.9572 676.316 97.6096 675.239 98.3556L674.617 98.0447L673.312 93.7555C675.591 92.5125 677.912 91.3829 680.274 90.3676C682.636 89.3523 684.335 88.8444 685.371 88.8444C689.267 88.8444 692.116 89.6528 693.919 91.269C695.721 92.8852 696.623 94.9781 696.623 97.5477C696.623 98.1279 696.415 100.034 696.001 103.267C695.96 103.764 695.836 104.779 695.628 106.312C695.421 107.846 695.317 108.924 695.317 109.545C695.317 110.25 695.504 110.82 695.877 111.255C696.25 111.69 696.747 111.908 697.369 111.908C698.156 111.908 699.027 111.638 699.979 111.099L700.974 112.529C700.145 114.062 699.13 115.513 697.928 116.88C696.727 118.248 695.628 119.056 694.634 119.305ZM683.568 112.218C684.107 112.218 684.739 112.105 685.465 111.876C686.19 111.648 686.842 111.369 687.422 111.037L687.547 105.442L681.89 106.872C681.393 106.997 681.041 107.193 680.833 107.463C680.626 107.732 680.522 108.115 680.522 108.613C680.522 109.649 680.802 110.509 681.362 111.192C681.921 111.876 682.657 112.218 683.568 112.218ZM705.264 114.332C706.466 114.249 707.294 113.938 707.75 113.4C708.206 112.86 708.434 111.908 708.434 110.54V98.8531C708.434 97.4022 708.247 96.4285 707.874 95.9315C707.502 95.434 706.756 95.1855 705.636 95.1855L704.518 95.2474L704.207 94.8123L704.642 91.0205C707.212 90.6473 709.791 90.2225 712.381 89.7458C714.971 89.2692 716.64 88.9687 717.386 88.8444L718.069 89.4662C717.987 89.7978 717.852 90.5334 717.665 91.6729C717.479 92.8129 717.365 93.9213 717.323 94.9989L717.758 95.2474C719.085 93.3411 720.494 91.8803 721.986 90.8651C723.478 89.8498 724.99 89.3419 726.524 89.3419C726.979 89.3419 727.435 89.3731 727.891 89.435C728.347 89.4973 728.637 89.5493 728.761 89.5904L729.01 90.1503C728.886 90.9378 728.658 92.6367 728.326 95.2474C727.995 97.8586 727.767 100.345 727.643 102.707L722.856 103.018C722.856 100.904 722.732 99.4951 722.483 98.7907C722.234 98.0863 721.758 97.7339 721.053 97.7339C720.515 97.7339 719.955 97.9101 719.375 98.2625C718.794 98.6145 718.235 99.1016 717.696 99.7233C717.614 100.843 717.499 102.686 717.354 105.256C717.209 107.826 717.116 109.856 717.075 111.348C717.075 112.26 717.241 112.902 717.572 113.275C717.903 113.648 718.463 113.835 719.25 113.835C719.955 113.835 720.628 113.803 721.271 113.741C721.913 113.679 722.338 113.627 722.545 113.586L722.794 114.021L722.048 118.87C721.426 118.828 720.111 118.766 718.1 118.683C716.09 118.601 714.422 118.559 713.096 118.559C711.48 118.559 709.802 118.601 708.061 118.683C706.321 118.766 705.181 118.828 704.642 118.87L705.264 114.332Z" fill="white" stroke="white"/>
</mask>
<g mask="url(#mask0_1_22)">
<path d="M733.183 73.9625H398.076V124.037H733.183V73.9625Z" fill="#443E48"/>
</g>
<mask id="mask1_1_22" style="mask-type:luminance" maskUnits="userSpaceOnUse" x="278" y="39" width="120" height="120">
<path d="M397.288 39.4691H278.226V158.531H397.288V39.4691Z" fill="black"/>
<path d="M296.729 140.028C285.287 128.586 285.287 69.4139 296.729 57.9723C308.171 46.5307 367.343 46.5302 378.785 57.9723C390.226 69.4143 390.226 128.586 378.785 140.028C367.343 151.469 308.171 151.47 296.729 140.028Z" fill="white"/>
</mask>
<g mask="url(#mask1_1_22)">
<path d="M397.288 39.4691H278.226V158.531H397.288V39.4691Z" fill="#2089E6"/>
</g>
<mask id="mask2_1_22" style="mask-type:luminance" maskUnits="userSpaceOnUse" x="307" y="67" width="62" height="64">
<path d="M368.32 67.2312H307.194V130.769H368.32V67.2312Z" fill="black"/>
<path d="M337.71 77.2422L343.37 107.397C345.474 95.4586 346.525 85.5001 346.525 77.5209C346.525 76.9024 346.525 76.3457 346.525 75.8509L346.34 72.325C352.958 75.2321 358.587 77.2115 363.226 78.2632C362.484 85.9331 361.417 93.4639 360.025 100.856C358.633 108.247 357.412 113.706 356.36 117.232L354.876 122.52C350.669 122.52 346.246 123.263 341.608 124.747L339.288 125.489L331.494 97.4693C329.7 104.212 327.783 113.613 325.742 125.675C323.329 124.809 320.824 123.557 318.226 121.917C315.628 120.278 313.649 118.654 312.288 117.046C312.969 111.046 314.036 105.046 315.489 99.0463C316.943 93.0463 318.257 88.5307 319.433 85.5L321.103 81.0463C325.803 79.3143 331.34 78.0463 337.71 77.2422Z" fill="white" stroke="white"/>
</mask>
<g mask="url(#mask2_1_22)">
<path d="M368.32 67.2312H307.194V130.769H368.32V67.2312Z" fill="#F8EFED"/>
</g>
</g>
<defs>
<clipPath id="clip0_1_22">
<rect width="455.433" height="120" fill="white" transform="translate(278 39)"/>
</clipPath>
</defs>
</svg>
